<mxfile host="app.diagrams.net" agent="Mozilla/5.0 (Windows NT 10.0; Win64; x64) AppleWebKit/537.36 (KHTML, like Gecko) Chrome/129.0.0.0 Safari/537.36" version="24.8.1">
  <diagram id="C5RBs43oDa-KdzZeNtuy" name="Page-1">
    <mxGraphModel dx="2699" dy="977" grid="1" gridSize="10" guides="1" tooltips="1" connect="1" arrows="1" fold="1" page="1" pageScale="1" pageWidth="827" pageHeight="1169" math="0" shadow="0">
      <root>
        <mxCell id="WIyWlLk6GJQsqaUBKTNV-0" />
        <mxCell id="WIyWlLk6GJQsqaUBKTNV-1" parent="WIyWlLk6GJQsqaUBKTNV-0" />
        <mxCell id="zS47Xuw-DA11DCwyIxi2-0" value="User" style="swimlane;fontStyle=1;align=center;verticalAlign=top;childLayout=stackLayout;horizontal=1;startSize=26;horizontalStack=0;resizeParent=1;resizeParentMax=0;resizeLast=0;collapsible=1;marginBottom=0;whiteSpace=wrap;html=1;" parent="WIyWlLk6GJQsqaUBKTNV-1" vertex="1">
          <mxGeometry x="-60" y="136" width="180" height="174" as="geometry" />
        </mxCell>
        <mxCell id="zS47Xuw-DA11DCwyIxi2-1" value="- userID: String&lt;div&gt;&lt;br&gt;&lt;div&gt;- username: String&lt;/div&gt;&lt;div&gt;&lt;br&gt;&lt;/div&gt;&lt;div&gt;- password: String&lt;/div&gt;&lt;div&gt;&lt;br&gt;&lt;/div&gt;&lt;div&gt;- role: String&lt;/div&gt;&lt;/div&gt;" style="text;strokeColor=none;fillColor=none;align=left;verticalAlign=top;spacingLeft=4;spacingRight=4;overflow=hidden;rotatable=0;points=[[0,0.5],[1,0.5]];portConstraint=eastwest;whiteSpace=wrap;html=1;" parent="zS47Xuw-DA11DCwyIxi2-0" vertex="1">
          <mxGeometry y="26" width="180" height="114" as="geometry" />
        </mxCell>
        <mxCell id="zS47Xuw-DA11DCwyIxi2-2" value="" style="line;strokeWidth=1;fillColor=none;align=left;verticalAlign=middle;spacingTop=-1;spacingLeft=3;spacingRight=3;rotatable=0;labelPosition=right;points=[];portConstraint=eastwest;strokeColor=inherit;" parent="zS47Xuw-DA11DCwyIxi2-0" vertex="1">
          <mxGeometry y="140" width="180" height="2" as="geometry" />
        </mxCell>
        <mxCell id="zS47Xuw-DA11DCwyIxi2-3" value="&lt;div&gt;&lt;span style=&quot;background-color: initial;&quot;&gt;- isAuthorized(): Boolean&lt;/span&gt;&lt;br&gt;&lt;/div&gt;" style="text;strokeColor=none;fillColor=none;align=left;verticalAlign=top;spacingLeft=4;spacingRight=4;overflow=hidden;rotatable=0;points=[[0,0.5],[1,0.5]];portConstraint=eastwest;whiteSpace=wrap;html=1;" parent="zS47Xuw-DA11DCwyIxi2-0" vertex="1">
          <mxGeometry y="142" width="180" height="32" as="geometry" />
        </mxCell>
        <mxCell id="zS47Xuw-DA11DCwyIxi2-4" value="Student" style="swimlane;fontStyle=1;align=center;verticalAlign=top;childLayout=stackLayout;horizontal=1;startSize=26;horizontalStack=0;resizeParent=1;resizeParentMax=0;resizeLast=0;collapsible=1;marginBottom=0;whiteSpace=wrap;html=1;" parent="WIyWlLk6GJQsqaUBKTNV-1" vertex="1">
          <mxGeometry x="300" y="300" width="140" height="530" as="geometry" />
        </mxCell>
        <mxCell id="zS47Xuw-DA11DCwyIxi2-5" value="- studentID: Int&lt;div&gt;&lt;br&gt;&lt;div&gt;- name: String&lt;/div&gt;&lt;div&gt;&lt;br&gt;&lt;/div&gt;&lt;div&gt;- dateOfBirth: Int&lt;/div&gt;&lt;div&gt;&lt;br&gt;&lt;/div&gt;&lt;div&gt;- major: String&lt;/div&gt;&lt;div&gt;&lt;br&gt;&lt;/div&gt;&lt;div&gt;- year: String&lt;/div&gt;&lt;div&gt;&lt;br&gt;&lt;/div&gt;&lt;div&gt;- email: String&lt;/div&gt;&lt;div&gt;&lt;br&gt;&lt;/div&gt;&lt;div&gt;- phone: String&lt;/div&gt;&lt;div&gt;&lt;br&gt;&lt;/div&gt;&lt;div&gt;- gpa: Double&lt;/div&gt;&lt;div&gt;&lt;br&gt;&lt;/div&gt;&lt;div&gt;- creditsEarned: Int&lt;/div&gt;&lt;/div&gt;" style="text;strokeColor=none;fillColor=none;align=left;verticalAlign=top;spacingLeft=4;spacingRight=4;overflow=hidden;rotatable=0;points=[[0,0.5],[1,0.5]];portConstraint=eastwest;whiteSpace=wrap;html=1;" parent="zS47Xuw-DA11DCwyIxi2-4" vertex="1">
          <mxGeometry y="26" width="140" height="264" as="geometry" />
        </mxCell>
        <mxCell id="zS47Xuw-DA11DCwyIxi2-6" value="" style="line;strokeWidth=1;fillColor=none;align=left;verticalAlign=middle;spacingTop=-1;spacingLeft=3;spacingRight=3;rotatable=0;labelPosition=right;points=[];portConstraint=eastwest;strokeColor=inherit;" parent="zS47Xuw-DA11DCwyIxi2-4" vertex="1">
          <mxGeometry y="290" width="140" height="8" as="geometry" />
        </mxCell>
        <mxCell id="zS47Xuw-DA11DCwyIxi2-7" value="- getName(): String&lt;div&gt;&lt;br&gt;&lt;/div&gt;&lt;div&gt;- getDateOfBirth(): Int&lt;/div&gt;&lt;div&gt;&lt;br&gt;&lt;/div&gt;&lt;div&gt;- getMajor(): String&lt;/div&gt;&lt;div&gt;&lt;br&gt;&lt;/div&gt;&lt;div&gt;- getYear(): String&lt;/div&gt;&lt;div&gt;&lt;br&gt;&lt;/div&gt;&lt;div&gt;- getEmail(): String&lt;/div&gt;&lt;div&gt;&lt;br&gt;&lt;/div&gt;&lt;div&gt;- getPhone(): String&lt;/div&gt;&lt;div&gt;&lt;br&gt;&lt;/div&gt;&lt;div&gt;- getGPA(): Double&lt;/div&gt;&lt;div&gt;&lt;br&gt;&lt;/div&gt;&lt;div&gt;- getCredits(): Int&lt;/div&gt;" style="text;strokeColor=none;fillColor=none;align=left;verticalAlign=top;spacingLeft=4;spacingRight=4;overflow=hidden;rotatable=0;points=[[0,0.5],[1,0.5]];portConstraint=eastwest;whiteSpace=wrap;html=1;" parent="zS47Xuw-DA11DCwyIxi2-4" vertex="1">
          <mxGeometry y="298" width="140" height="232" as="geometry" />
        </mxCell>
        <mxCell id="zS47Xuw-DA11DCwyIxi2-20" value="Admin" style="swimlane;fontStyle=1;align=center;verticalAlign=top;childLayout=stackLayout;horizontal=1;startSize=26;horizontalStack=0;resizeParent=1;resizeParentMax=0;resizeLast=0;collapsible=1;marginBottom=0;whiteSpace=wrap;html=1;" parent="WIyWlLk6GJQsqaUBKTNV-1" vertex="1">
          <mxGeometry x="550" y="80" width="160" height="180" as="geometry" />
        </mxCell>
        <mxCell id="zS47Xuw-DA11DCwyIxi2-21" value="- adminID: Int" style="text;strokeColor=none;fillColor=none;align=left;verticalAlign=top;spacingLeft=4;spacingRight=4;overflow=hidden;rotatable=0;points=[[0,0.5],[1,0.5]];portConstraint=eastwest;whiteSpace=wrap;html=1;" parent="zS47Xuw-DA11DCwyIxi2-20" vertex="1">
          <mxGeometry y="26" width="160" height="26" as="geometry" />
        </mxCell>
        <mxCell id="zS47Xuw-DA11DCwyIxi2-22" value="" style="line;strokeWidth=1;fillColor=none;align=left;verticalAlign=middle;spacingTop=-1;spacingLeft=3;spacingRight=3;rotatable=0;labelPosition=right;points=[];portConstraint=eastwest;strokeColor=inherit;" parent="zS47Xuw-DA11DCwyIxi2-20" vertex="1">
          <mxGeometry y="52" width="160" height="8" as="geometry" />
        </mxCell>
        <mxCell id="zS47Xuw-DA11DCwyIxi2-23" value="&lt;div&gt;- addUser: void&lt;/div&gt;&lt;div&gt;&lt;br&gt;&lt;/div&gt;&lt;div&gt;- deleteUser: void&lt;/div&gt;&lt;div&gt;&lt;br&gt;&lt;/div&gt;&lt;div&gt;- updateUserInfo: void&lt;/div&gt;&lt;div&gt;&lt;br&gt;&lt;/div&gt;&lt;div&gt;- viewAllUsers(): void&lt;/div&gt;" style="text;strokeColor=none;fillColor=none;align=left;verticalAlign=top;spacingLeft=4;spacingRight=4;overflow=hidden;rotatable=0;points=[[0,0.5],[1,0.5]];portConstraint=eastwest;whiteSpace=wrap;html=1;" parent="zS47Xuw-DA11DCwyIxi2-20" vertex="1">
          <mxGeometry y="60" width="160" height="120" as="geometry" />
        </mxCell>
        <mxCell id="zS47Xuw-DA11DCwyIxi2-24" value="Professor" style="swimlane;fontStyle=1;align=center;verticalAlign=top;childLayout=stackLayout;horizontal=1;startSize=26;horizontalStack=0;resizeParent=1;resizeParentMax=0;resizeLast=0;collapsible=1;marginBottom=0;whiteSpace=wrap;html=1;" parent="WIyWlLk6GJQsqaUBKTNV-1" vertex="1">
          <mxGeometry x="560" y="310" width="250" height="266" as="geometry" />
        </mxCell>
        <mxCell id="zS47Xuw-DA11DCwyIxi2-25" value="- department: String&lt;div&gt;&lt;br&gt;&lt;/div&gt;&lt;div&gt;- officeLocation: String&lt;/div&gt;&lt;div&gt;&lt;br&gt;&lt;/div&gt;&lt;div&gt;- coursesTeaching: List&amp;lt;Course&amp;gt;&lt;br&gt;&lt;div&gt;&lt;br&gt;&lt;/div&gt;&lt;/div&gt;" style="text;strokeColor=none;fillColor=none;align=left;verticalAlign=top;spacingLeft=4;spacingRight=4;overflow=hidden;rotatable=0;points=[[0,0.5],[1,0.5]];portConstraint=eastwest;whiteSpace=wrap;html=1;" parent="zS47Xuw-DA11DCwyIxi2-24" vertex="1">
          <mxGeometry y="26" width="250" height="84" as="geometry" />
        </mxCell>
        <mxCell id="zS47Xuw-DA11DCwyIxi2-26" value="" style="line;strokeWidth=1;fillColor=none;align=left;verticalAlign=middle;spacingTop=-1;spacingLeft=3;spacingRight=3;rotatable=0;labelPosition=right;points=[];portConstraint=eastwest;strokeColor=inherit;" parent="zS47Xuw-DA11DCwyIxi2-24" vertex="1">
          <mxGeometry y="110" width="250" height="8" as="geometry" />
        </mxCell>
        <mxCell id="zS47Xuw-DA11DCwyIxi2-27" value="&lt;div&gt;- searchStudentByID: Int&lt;/div&gt;&lt;div&gt;&lt;br&gt;&lt;/div&gt;&lt;div&gt;- searchStudentByName: List&amp;lt;Student&amp;gt;&lt;/div&gt;&lt;div&gt;&lt;br&gt;&lt;/div&gt;&lt;div&gt;- updateStudentGPA: Double&lt;/div&gt;&lt;div&gt;&lt;br&gt;&lt;/div&gt;&lt;div&gt;- viewCourses(): List&amp;lt;Course&amp;gt;&lt;/div&gt;&lt;div&gt;&lt;br&gt;&lt;/div&gt;&lt;div&gt;- viewEnrolledStudents(): List&amp;lt;Student&amp;gt;&lt;/div&gt;" style="text;strokeColor=none;fillColor=none;align=left;verticalAlign=top;spacingLeft=4;spacingRight=4;overflow=hidden;rotatable=0;points=[[0,0.5],[1,0.5]];portConstraint=eastwest;whiteSpace=wrap;html=1;" parent="zS47Xuw-DA11DCwyIxi2-24" vertex="1">
          <mxGeometry y="118" width="250" height="148" as="geometry" />
        </mxCell>
        <mxCell id="zS47Xuw-DA11DCwyIxi2-28" value="Course" style="swimlane;fontStyle=1;align=center;verticalAlign=top;childLayout=stackLayout;horizontal=1;startSize=26;horizontalStack=0;resizeParent=1;resizeParentMax=0;resizeLast=0;collapsible=1;marginBottom=0;whiteSpace=wrap;html=1;" parent="WIyWlLk6GJQsqaUBKTNV-1" vertex="1">
          <mxGeometry x="840" y="560" width="230" height="290" as="geometry" />
        </mxCell>
        <mxCell id="zS47Xuw-DA11DCwyIxi2-29" value="- courseID: Int&lt;div&gt;&lt;br&gt;&lt;div&gt;- courseName: String&lt;/div&gt;&lt;div&gt;&lt;br&gt;&lt;/div&gt;&lt;div&gt;- creditHours: Int&lt;/div&gt;&lt;div&gt;&lt;br&gt;&lt;/div&gt;&lt;div&gt;- professor: String&lt;/div&gt;&lt;/div&gt;" style="text;strokeColor=none;fillColor=none;align=left;verticalAlign=top;spacingLeft=4;spacingRight=4;overflow=hidden;rotatable=0;points=[[0,0.5],[1,0.5]];portConstraint=eastwest;whiteSpace=wrap;html=1;" parent="zS47Xuw-DA11DCwyIxi2-28" vertex="1">
          <mxGeometry y="26" width="230" height="134" as="geometry" />
        </mxCell>
        <mxCell id="zS47Xuw-DA11DCwyIxi2-30" value="" style="line;strokeWidth=1;fillColor=none;align=left;verticalAlign=middle;spacingTop=-1;spacingLeft=3;spacingRight=3;rotatable=0;labelPosition=right;points=[];portConstraint=eastwest;strokeColor=inherit;" parent="zS47Xuw-DA11DCwyIxi2-28" vertex="1">
          <mxGeometry y="160" width="230" height="8" as="geometry" />
        </mxCell>
        <mxCell id="zS47Xuw-DA11DCwyIxi2-31" value="- getCourseDetails(): String&lt;div&gt;&lt;br&gt;&lt;div&gt;- addStudent(): void&lt;/div&gt;&lt;div&gt;&lt;br&gt;&lt;/div&gt;&lt;div&gt;- removeStudent(): void&lt;/div&gt;&lt;/div&gt;&lt;div&gt;&lt;br&gt;&lt;/div&gt;&lt;div&gt;- getEnrolledStudents(): List&amp;lt;Student&amp;gt;&lt;/div&gt;" style="text;strokeColor=none;fillColor=none;align=left;verticalAlign=top;spacingLeft=4;spacingRight=4;overflow=hidden;rotatable=0;points=[[0,0.5],[1,0.5]];portConstraint=eastwest;whiteSpace=wrap;html=1;" parent="zS47Xuw-DA11DCwyIxi2-28" vertex="1">
          <mxGeometry y="168" width="230" height="122" as="geometry" />
        </mxCell>
        <mxCell id="zS47Xuw-DA11DCwyIxi2-32" value="SMS" style="swimlane;fontStyle=1;align=center;verticalAlign=top;childLayout=stackLayout;horizontal=1;startSize=26;horizontalStack=0;resizeParent=1;resizeParentMax=0;resizeLast=0;collapsible=1;marginBottom=0;whiteSpace=wrap;html=1;" parent="WIyWlLk6GJQsqaUBKTNV-1" vertex="1">
          <mxGeometry x="-80" y="600" width="210" height="420" as="geometry" />
        </mxCell>
        <mxCell id="zS47Xuw-DA11DCwyIxi2-33" value="- students: List&amp;lt;Student&amp;gt;&amp;nbsp;&lt;div&gt;&lt;br&gt;&lt;div&gt;- courses: List&amp;lt;Course&amp;gt;&lt;br&gt;&lt;/div&gt;&lt;div&gt;&lt;br&gt;&lt;/div&gt;&lt;div&gt;- users: List&amp;lt;User&amp;gt;&lt;/div&gt;&lt;div&gt;&lt;br&gt;&lt;/div&gt;&lt;div&gt;&lt;br&gt;&lt;/div&gt;&lt;/div&gt;" style="text;strokeColor=none;fillColor=none;align=left;verticalAlign=top;spacingLeft=4;spacingRight=4;overflow=hidden;rotatable=0;points=[[0,0.5],[1,0.5]];portConstraint=eastwest;whiteSpace=wrap;html=1;" parent="zS47Xuw-DA11DCwyIxi2-32" vertex="1">
          <mxGeometry y="26" width="210" height="104" as="geometry" />
        </mxCell>
        <mxCell id="zS47Xuw-DA11DCwyIxi2-34" value="" style="line;strokeWidth=1;fillColor=none;align=left;verticalAlign=middle;spacingTop=-1;spacingLeft=3;spacingRight=3;rotatable=0;labelPosition=right;points=[];portConstraint=eastwest;strokeColor=inherit;" parent="zS47Xuw-DA11DCwyIxi2-32" vertex="1">
          <mxGeometry y="130" width="210" height="8" as="geometry" />
        </mxCell>
        <mxCell id="zS47Xuw-DA11DCwyIxi2-35" value="&lt;div&gt;- login(): void&lt;/div&gt;&lt;div&gt;&lt;br&gt;&lt;/div&gt;&lt;div&gt;- logout(): void&lt;/div&gt;&lt;div&gt;&lt;br&gt;&lt;/div&gt;- addStudent(): void&lt;div&gt;&lt;br&gt;&lt;div&gt;- removeStudent(): void&lt;/div&gt;&lt;div&gt;&lt;br&gt;&lt;/div&gt;&lt;div&gt;- getStudentByID(): List&amp;lt;Student&amp;gt;&lt;/div&gt;&lt;/div&gt;&lt;div&gt;&lt;br&gt;&lt;/div&gt;&lt;div&gt;- getStudentByName(): List&amp;lt;Student&amp;gt;&lt;/div&gt;&lt;div&gt;&lt;br&gt;&lt;/div&gt;&lt;div&gt;- addCourse(): void&lt;/div&gt;&lt;div&gt;&lt;br&gt;&lt;/div&gt;&lt;div&gt;- removeCourse(): void&lt;/div&gt;&lt;div&gt;&lt;br&gt;&lt;/div&gt;&lt;div&gt;- getCourseByID(): void&lt;/div&gt;" style="text;strokeColor=none;fillColor=none;align=left;verticalAlign=top;spacingLeft=4;spacingRight=4;overflow=hidden;rotatable=0;points=[[0,0.5],[1,0.5]];portConstraint=eastwest;whiteSpace=wrap;html=1;" parent="zS47Xuw-DA11DCwyIxi2-32" vertex="1">
          <mxGeometry y="138" width="210" height="282" as="geometry" />
        </mxCell>
        <mxCell id="zS47Xuw-DA11DCwyIxi2-37" value="" style="endArrow=block;endSize=16;endFill=0;html=1;rounded=0;exitX=1.006;exitY=0.322;exitDx=0;exitDy=0;exitPerimeter=0;entryX=1;entryY=0.038;entryDx=0;entryDy=0;entryPerimeter=0;" parent="WIyWlLk6GJQsqaUBKTNV-1" target="zS47Xuw-DA11DCwyIxi2-3" edge="1">
          <mxGeometry width="160" relative="1" as="geometry">
            <mxPoint x="685" y="310" as="sourcePoint" />
            <mxPoint x="120" y="253.45038167938947" as="targetPoint" />
            <Array as="points">
              <mxPoint x="685" y="280" />
            </Array>
          </mxGeometry>
        </mxCell>
        <mxCell id="zS47Xuw-DA11DCwyIxi2-39" value="1" style="text;html=1;align=center;verticalAlign=middle;resizable=0;points=[];autosize=1;strokeColor=none;fillColor=none;" parent="WIyWlLk6GJQsqaUBKTNV-1" vertex="1">
          <mxGeometry x="130" y="155" width="30" height="30" as="geometry" />
        </mxCell>
        <mxCell id="zS47Xuw-DA11DCwyIxi2-40" value="1" style="text;html=1;align=center;verticalAlign=middle;resizable=0;points=[];autosize=1;strokeColor=none;fillColor=none;" parent="WIyWlLk6GJQsqaUBKTNV-1" vertex="1">
          <mxGeometry x="520" y="155" width="30" height="30" as="geometry" />
        </mxCell>
        <mxCell id="zS47Xuw-DA11DCwyIxi2-41" value="1" style="text;html=1;align=center;verticalAlign=middle;resizable=0;points=[];autosize=1;strokeColor=none;fillColor=none;" parent="WIyWlLk6GJQsqaUBKTNV-1" vertex="1">
          <mxGeometry x="130" y="250" width="30" height="30" as="geometry" />
        </mxCell>
        <mxCell id="zS47Xuw-DA11DCwyIxi2-42" value="1" style="text;html=1;align=center;verticalAlign=middle;resizable=0;points=[];autosize=1;strokeColor=none;fillColor=none;" parent="WIyWlLk6GJQsqaUBKTNV-1" vertex="1">
          <mxGeometry x="650" y="280" width="30" height="30" as="geometry" />
        </mxCell>
        <mxCell id="zS47Xuw-DA11DCwyIxi2-50" value="1" style="text;html=1;align=center;verticalAlign=middle;resizable=0;points=[];autosize=1;strokeColor=none;fillColor=none;" parent="WIyWlLk6GJQsqaUBKTNV-1" vertex="1">
          <mxGeometry x="810" y="390" width="30" height="30" as="geometry" />
        </mxCell>
        <mxCell id="zS47Xuw-DA11DCwyIxi2-51" value="1...3" style="text;html=1;align=center;verticalAlign=middle;resizable=0;points=[];autosize=1;strokeColor=none;fillColor=none;" parent="WIyWlLk6GJQsqaUBKTNV-1" vertex="1">
          <mxGeometry x="870" y="530" width="50" height="30" as="geometry" />
        </mxCell>
        <mxCell id="zS47Xuw-DA11DCwyIxi2-56" value="1" style="text;html=1;align=center;verticalAlign=middle;resizable=0;points=[];autosize=1;strokeColor=none;fillColor=none;" parent="WIyWlLk6GJQsqaUBKTNV-1" vertex="1">
          <mxGeometry x="797" y="650" width="30" height="30" as="geometry" />
        </mxCell>
        <mxCell id="zS47Xuw-DA11DCwyIxi2-60" value="1...*" style="text;html=1;align=center;verticalAlign=middle;resizable=0;points=[];autosize=1;strokeColor=none;fillColor=none;" parent="WIyWlLk6GJQsqaUBKTNV-1" vertex="1">
          <mxGeometry x="260" y="400" width="40" height="30" as="geometry" />
        </mxCell>
        <mxCell id="zS47Xuw-DA11DCwyIxi2-63" value="1..*" style="text;html=1;align=center;verticalAlign=middle;resizable=0;points=[];autosize=1;strokeColor=none;fillColor=none;" parent="WIyWlLk6GJQsqaUBKTNV-1" vertex="1">
          <mxGeometry x="920" y="890" width="40" height="30" as="geometry" />
        </mxCell>
        <mxCell id="zS47Xuw-DA11DCwyIxi2-66" value="1...*" style="text;html=1;align=center;verticalAlign=middle;resizable=0;points=[];autosize=1;strokeColor=none;fillColor=none;" parent="WIyWlLk6GJQsqaUBKTNV-1" vertex="1">
          <mxGeometry x="-40" y="310" width="40" height="30" as="geometry" />
        </mxCell>
        <mxCell id="zS47Xuw-DA11DCwyIxi2-36" value="" style="endArrow=block;endSize=16;endFill=0;html=1;rounded=0;exitX=-0.008;exitY=0.409;exitDx=0;exitDy=0;exitPerimeter=0;entryX=1.01;entryY=0.248;entryDx=0;entryDy=0;entryPerimeter=0;" parent="WIyWlLk6GJQsqaUBKTNV-1" source="zS47Xuw-DA11DCwyIxi2-23" target="zS47Xuw-DA11DCwyIxi2-1" edge="1">
          <mxGeometry width="160" relative="1" as="geometry">
            <mxPoint x="251.26" y="130" as="sourcePoint" />
            <mxPoint x="200.00000000000023" y="230.9739999999999" as="targetPoint" />
          </mxGeometry>
        </mxCell>
        <mxCell id="-A-bRTixERK1IYssXzr--0" value="" style="endArrow=diamondThin;endFill=1;endSize=24;html=1;rounded=0;entryX=1.007;entryY=0.915;entryDx=0;entryDy=0;entryPerimeter=0;exitX=0.523;exitY=0.999;exitDx=0;exitDy=0;exitPerimeter=0;" parent="WIyWlLk6GJQsqaUBKTNV-1" source="zS47Xuw-DA11DCwyIxi2-31" edge="1">
          <mxGeometry width="160" relative="1" as="geometry">
            <mxPoint x="960" y="920" as="sourcePoint" />
            <mxPoint x="129.9999999999998" y="920.0000000000002" as="targetPoint" />
            <Array as="points">
              <mxPoint x="960" y="920" />
            </Array>
          </mxGeometry>
        </mxCell>
        <mxCell id="-A-bRTixERK1IYssXzr--1" value="" style="endArrow=diamondThin;endFill=1;endSize=24;html=1;rounded=0;entryX=0.571;entryY=0;entryDx=0;entryDy=0;entryPerimeter=0;exitX=0;exitY=0.28;exitDx=0;exitDy=0;exitPerimeter=0;" parent="WIyWlLk6GJQsqaUBKTNV-1" source="zS47Xuw-DA11DCwyIxi2-5" edge="1">
          <mxGeometry width="160" relative="1" as="geometry">
            <mxPoint x="30" y="440" as="sourcePoint" />
            <mxPoint x="29.919999999999852" y="600" as="targetPoint" />
            <Array as="points">
              <mxPoint x="30" y="400" />
            </Array>
          </mxGeometry>
        </mxCell>
        <mxCell id="-A-bRTixERK1IYssXzr--2" value="" style="endArrow=diamondThin;endFill=1;endSize=24;html=1;rounded=0;entryX=0.25;entryY=0;entryDx=0;entryDy=0;exitX=0.113;exitY=1.02;exitDx=0;exitDy=0;exitPerimeter=0;" parent="WIyWlLk6GJQsqaUBKTNV-1" source="zS47Xuw-DA11DCwyIxi2-3" edge="1">
          <mxGeometry width="160" relative="1" as="geometry">
            <mxPoint x="-2.5" y="410" as="sourcePoint" />
            <mxPoint x="-40" y="600" as="targetPoint" />
          </mxGeometry>
        </mxCell>
        <mxCell id="-A-bRTixERK1IYssXzr--3" value="1" style="text;html=1;align=center;verticalAlign=middle;resizable=0;points=[];autosize=1;strokeColor=none;fillColor=none;" parent="WIyWlLk6GJQsqaUBKTNV-1" vertex="1">
          <mxGeometry x="-40" y="560" width="30" height="30" as="geometry" />
        </mxCell>
        <mxCell id="-A-bRTixERK1IYssXzr--4" value="1" style="text;html=1;align=center;verticalAlign=middle;resizable=0;points=[];autosize=1;strokeColor=none;fillColor=none;" parent="WIyWlLk6GJQsqaUBKTNV-1" vertex="1">
          <mxGeometry x="30" y="560" width="30" height="30" as="geometry" />
        </mxCell>
        <mxCell id="-A-bRTixERK1IYssXzr--5" value="1" style="text;html=1;align=center;verticalAlign=middle;resizable=0;points=[];autosize=1;strokeColor=none;fillColor=none;" parent="WIyWlLk6GJQsqaUBKTNV-1" vertex="1">
          <mxGeometry x="140" y="890" width="30" height="30" as="geometry" />
        </mxCell>
        <mxCell id="-A-bRTixERK1IYssXzr--6" value="" style="endArrow=diamondThin;endFill=1;endSize=24;html=1;rounded=0;entryX=0;entryY=0.5;entryDx=0;entryDy=0;exitX=1.002;exitY=0.207;exitDx=0;exitDy=0;exitPerimeter=0;" parent="WIyWlLk6GJQsqaUBKTNV-1" edge="1">
          <mxGeometry width="160" relative="1" as="geometry">
            <mxPoint x="439.9999999999998" y="680.0040000000001" as="sourcePoint" />
            <mxPoint x="839.72" y="680.77" as="targetPoint" />
          </mxGeometry>
        </mxCell>
        <mxCell id="-A-bRTixERK1IYssXzr--7" value="10..25" style="text;html=1;align=center;verticalAlign=middle;resizable=0;points=[];autosize=1;strokeColor=none;fillColor=none;" parent="WIyWlLk6GJQsqaUBKTNV-1" vertex="1">
          <mxGeometry x="440" y="650" width="60" height="30" as="geometry" />
        </mxCell>
        <mxCell id="ARZKecqNI4soJYKzZxgo-0" value="" style="endArrow=diamondThin;endFill=1;endSize=24;html=1;rounded=0;entryX=0.681;entryY=-0.005;entryDx=0;entryDy=0;entryPerimeter=0;" edge="1" parent="WIyWlLk6GJQsqaUBKTNV-1">
          <mxGeometry width="160" relative="1" as="geometry">
            <mxPoint x="810" y="391" as="sourcePoint" />
            <mxPoint x="959.6300000000001" y="560" as="targetPoint" />
            <Array as="points">
              <mxPoint x="960" y="391.45" />
            </Array>
          </mxGeometry>
        </mxCell>
      </root>
    </mxGraphModel>
  </diagram>
</mxfile>
